<?xml version="1.0" encoding="utf-8"?>
<!-- Generator: Adobe Illustrator 25.2.0, SVG Export Plug-In . SVG Version: 6.00 Build 0)  -->
<svg version="1.1" id="Layer_1" xmlns="http://www.w3.org/2000/svg" xmlns:xlink="http://www.w3.org/1999/xlink" x="0px" y="0px"
	 viewBox="0 0 32 32" style="enable-background:new 0 0 32 32;" xml:space="preserve">
<path d="M25.9,9L9,25.9c-0.8,0.8-2,0.8-2.8,0l0,0c-0.8-0.8-0.8-2,0-2.8L23,6.1c0.8-0.8,2-0.8,2.8,0l0,0C26.6,6.9,26.6,8.2,25.9,9z"
	/>
<path d="M23,25.9L6.1,9c-0.8-0.8-0.8-2,0-2.8l0,0c0.8-0.8,2-0.8,2.8,0L25.9,23c0.8,0.8,0.8,2,0,2.8l0,0C25.1,26.6,23.8,26.6,23,25.9
	z"/>
</svg>
