<?xml version="1.0" encoding="utf-8"?>
<!-- Generator: Adobe Illustrator 25.2.1, SVG Export Plug-In . SVG Version: 6.00 Build 0)  -->
<svg version="1.1" id="Calque_1" xmlns="http://www.w3.org/2000/svg" xmlns:xlink="http://www.w3.org/1999/xlink" x="0px" y="0px"
	 viewBox="0 0 521.2 404.2" style="enable-background:new 0 0 521.2 404.2;" xml:space="preserve">
<style type="text/css">
	.st0{fill:#D9D9D9;}
	.st1{fill:#0BB2C4;}
</style>
<path d="M375.7,282.2c2.3-6.4,3.6-13.3,3.6-20.5v-122h-28.2v70.8c-9.4-5.9-20.5-9.4-32.4-9.4c-33.4,0-60.5,27.1-60.5,60.5
	s27.1,60.5,60.5,60.5c15.7,0,30.1-6,40.9-15.9l17.3,17.3l20.1-20.1L375.7,282.2z M318.7,294.1c-17.9,0-32.4-14.5-32.4-32.4
	c0-17.9,14.5-32.4,32.4-32.4c17.9,0,32.4,14.5,32.4,32.4C351.1,279.7,336.6,294.1,318.7,294.1z"/>
<path class="st0" d="M174.8,105.8h-70.6v70.6c-39,0-70.6-31.6-70.6-70.6s31.6-70.6,70.6-70.6C143.1,35.1,174.8,66.8,174.8,105.8z"/>
<polygon points="143.9,199.9 239.8,199.9 239.8,228 143.9,228 143.9,288.1 248.3,288.1 248.3,322.2 104.2,322.2 104.2,105.8 
	248.3,105.8 248.3,139.8 143.9,139.8 "/>
<circle class="st1" cx="428.5" cy="300.7" r="21.4"/>
</svg>
